<svg xmlns="http://www.w3.org/2000/svg" xmlns:xlink="http://www.w3.org/1999/xlink" width="1024" height="768" viewBox="0 0 1024 768"><title>Gnuplot</title><desc>Produced by GNUPLOT 5.2 patchlevel 2 (Gentoo revision r0)</desc><g id="gnuplot_canvas"><rect width="1024" height="768" x="0" y="0" fill="#fff"/><defs><circle id="gpDot" r=".5" stroke-width=".5"/><path id="gpPt0" stroke="currentColor" stroke-width=".222" d="M-1,0 h2 M0,-1 v2"/><path id="gpPt1" stroke="currentColor" stroke-width=".222" d="M-1,-1 L1,1 M1,-1 L-1,1"/><path id="gpPt2" stroke="currentColor" stroke-width=".222" d="M-1,0 L1,0 M0,-1 L0,1 M-1,-1 L1,1 M-1,1 L1,-1"/><rect id="gpPt3" width="2" height="2" x="-1" y="-1" stroke="currentColor" stroke-width=".222"/><rect id="gpPt4" width="2" height="2" x="-1" y="-1" fill="currentColor" stroke="currentColor" stroke-width=".222"/><circle id="gpPt5" cx="0" cy="0" r="1" stroke="currentColor" stroke-width=".222"/><use id="gpPt6" fill="currentColor" stroke="none" xlink:href="#gpPt5"/><path id="gpPt7" stroke="currentColor" stroke-width=".222" d="M0,-1.33 L-1.33,0.67 L1.33,0.67 z"/><use id="gpPt8" fill="currentColor" stroke="none" xlink:href="#gpPt7"/><use id="gpPt9" stroke="currentColor" transform="rotate(180)" xlink:href="#gpPt7"/><use id="gpPt10" fill="currentColor" stroke="none" xlink:href="#gpPt9"/><use id="gpPt11" stroke="currentColor" transform="rotate(45)" xlink:href="#gpPt3"/><use id="gpPt12" fill="currentColor" stroke="none" xlink:href="#gpPt11"/><path id="gpPt13" stroke="currentColor" stroke-width=".222" d="M0,1.330 L1.265,0.411 L0.782,-1.067 L-0.782,-1.076 L-1.265,0.411 z"/><use id="gpPt14" fill="currentColor" stroke="none" xlink:href="#gpPt13"/><filter id="textbox" width="1" height="1" x="0" y="0" filterUnits="objectBoundingBox"><feFlood flood-color="#FFF" flood-opacity="1" result="bgnd"/><feComposite in="SourceGraphic" in2="bgnd" operator="atop"/></filter><filter id="greybox" width="1" height="1" x="0" y="0" filterUnits="objectBoundingBox"><feFlood flood-color="#d3d3d3" flood-opacity="1" result="grey"/><feComposite in="SourceGraphic" in2="grey" operator="atop"/></filter></defs><g fill="none" stroke="currentColor" stroke-linecap="butt" stroke-linejoin="miter" stroke-width="1" color="#000"><path stroke="#000" d="M62.2,732.0 L71.2,732.0 M999.0,732.0 L990.0,732.0"/><g fill="#000" stroke="none" font-family="Arial" font-size="12" text-anchor="end"><text transform="translate(53.9,735.9)"><tspan font-family="Arial">1x10</tspan><tspan dy="-6" font-family="Arial" font-size="9.6">6</tspan></text></g></g><g fill="none" stroke="currentColor" stroke-linecap="butt" stroke-linejoin="miter" stroke-width="1" color="#000"><path stroke="#000" d="M62.2,660.4 L66.7,660.4 M999.0,660.4 L994.5,660.4 M62.2,618.5 L66.7,618.5 M999.0,618.5 L994.5,618.5 M62.2,588.7 L66.7,588.7 M999.0,588.7 L994.5,588.7 M62.2,565.7 L66.7,565.7 M999.0,565.7 L994.5,565.7 M62.2,546.8 L66.7,546.8 M999.0,546.8 L994.5,546.8 M62.2,530.9 L66.7,530.9 M999.0,530.9 L994.5,530.9 M62.2,517.1 L66.7,517.1 M999.0,517.1 L994.5,517.1 M62.2,504.9 L66.7,504.9 M999.0,504.9 L994.5,504.9 M62.2,494.0 L71.2,494.0 M999.0,494.0 L990.0,494.0"/><g fill="#000" stroke="none" font-family="Arial" font-size="12" text-anchor="end"><text transform="translate(53.9,497.9)"><tspan font-family="Arial">1x10</tspan><tspan dy="-6" font-family="Arial" font-size="9.6">7</tspan></text></g></g><g fill="none" stroke="currentColor" stroke-linecap="butt" stroke-linejoin="miter" stroke-width="1" color="#000"><path stroke="#000" d="M62.2,422.4 L66.7,422.4 M999.0,422.4 L994.5,422.4 M62.2,380.5 L66.7,380.5 M999.0,380.5 L994.5,380.5 M62.2,350.8 L66.7,350.8 M999.0,350.8 L994.5,350.8 M62.2,327.7 L66.7,327.7 M999.0,327.7 L994.5,327.7 M62.2,308.9 L66.7,308.9 M999.0,308.9 L994.5,308.9 M62.2,292.9 L66.7,292.9 M999.0,292.9 L994.5,292.9 M62.2,279.1 L66.7,279.1 M999.0,279.1 L994.5,279.1 M62.2,267.0 L66.7,267.0 M999.0,267.0 L994.5,267.0 M62.2,256.1 L71.2,256.1 M999.0,256.1 L990.0,256.1"/><g fill="#000" stroke="none" font-family="Arial" font-size="12" text-anchor="end"><text transform="translate(53.9,260.0)"><tspan font-family="Arial">1x10</tspan><tspan dy="-6" font-family="Arial" font-size="9.6">8</tspan></text></g></g><g fill="none" stroke="currentColor" stroke-linecap="butt" stroke-linejoin="miter" stroke-width="1" color="#000"><path stroke="#000" d="M62.2,184.4 L66.7,184.4 M999.0,184.4 L994.5,184.4 M62.2,142.5 L66.7,142.5 M999.0,142.5 L994.5,142.5 M62.2,112.8 L66.7,112.8 M999.0,112.8 L994.5,112.8 M62.2,89.7 L66.7,89.7 M999.0,89.7 L994.5,89.7 M62.2,70.9 L66.7,70.9 M999.0,70.9 L994.5,70.9 M62.2,55.0 L66.7,55.0 M999.0,55.0 L994.5,55.0 M62.2,41.2 L66.7,41.2 M999.0,41.2 L994.5,41.2 M62.2,29.0 L66.7,29.0 M999.0,29.0 L994.5,29.0 M62.2,18.1 L71.2,18.1 M999.0,18.1 L990.0,18.1"/><g fill="#000" stroke="none" font-family="Arial" font-size="12" text-anchor="end"><text transform="translate(53.9,22.0)"><tspan font-family="Arial">1x10</tspan><tspan dy="-6" font-family="Arial" font-size="9.6">9</tspan></text></g></g><g fill="none" stroke="currentColor" stroke-linecap="butt" stroke-linejoin="miter" stroke-width="1" color="#000"><path stroke="#000" d="M86.4,732.0 L86.4,727.5 M86.4,18.1 L86.4,22.6 M122.5,732.0 L122.5,727.5 M122.5,18.1 L122.5,22.6 M154.4,732.0 L154.4,727.5 M154.4,18.1 L154.4,22.6 M182.8,732.0 L182.8,723.0 M182.8,18.1 L182.8,27.1"/><g fill="#000" stroke="none" font-family="Arial" font-size="12" text-anchor="middle"><text transform="translate(182.8,753.9)"><tspan font-family="Arial">100</tspan></text></g></g><g fill="none" stroke="currentColor" stroke-linecap="butt" stroke-linejoin="miter" stroke-width="1" color="#000"><path stroke="#000" d="M370.2,732.0 L370.2,727.5 M370.2,18.1 L370.2,22.6 M479.8,732.0 L479.8,727.5 M479.8,18.1 L479.8,22.6 M557.6,732.0 L557.6,727.5 M557.6,18.1 L557.6,22.6 M617.9,732.0 L617.9,727.5 M617.9,18.1 L617.9,22.6 M667.2,732.0 L667.2,727.5 M667.2,18.1 L667.2,22.6 M708.8,732.0 L708.8,727.5 M708.8,18.1 L708.8,22.6 M744.9,732.0 L744.9,727.5 M744.9,18.1 L744.9,22.6 M776.8,732.0 L776.8,727.5 M776.8,18.1 L776.8,22.6 M805.2,732.0 L805.2,723.0 M805.2,18.1 L805.2,27.1"/><g fill="#000" stroke="none" font-family="Arial" font-size="12" text-anchor="middle"><text transform="translate(805.2,753.9)"><tspan font-family="Arial">1000</tspan></text></g></g><g fill="none" stroke="currentColor" stroke-linecap="butt" stroke-linejoin="miter" stroke-width="1" color="#000"><path stroke="#000" d="M992.6,732.0 L992.6,727.5 M992.6,18.1 L992.6,22.6"/></g><g fill="none" stroke="currentColor" stroke-linecap="butt" stroke-linejoin="miter" stroke-width="1" color="#000"><path stroke="#000" d="M62.2,18.1 L62.2,732.0 L999.0,732.0 L999.0,18.1 L62.2,18.1 Z"/></g><g id="gnuplot_plot_1"><title>async_cpus</title><g fill="none" stroke="currentColor" stroke-linecap="butt" stroke-linejoin="miter" stroke-width="1" color="#000"><g fill="#000" stroke="none" font-family="Arial" font-size="12" text-anchor="end"><text transform="translate(931.9,591.9)"><tspan font-family="Arial">async_cpus</tspan></text></g></g><g fill="none" stroke="currentColor" stroke-linecap="butt" stroke-linejoin="miter" stroke-width="1" color="#000"><path stroke="red" d="M940.2,588.0 L982.4,588.0 M62.2,551.5 L249.6,483.6 L436.9,416.7 L624.3,345.8 L811.6,271.2 L999.0,188.4"/><use color="red" transform="translate(62.2,551.5) scale(4.50)" xlink:href="#gpPt0"/><use color="red" transform="translate(249.6,483.6) scale(4.50)" xlink:href="#gpPt0"/><use color="red" transform="translate(436.9,416.7) scale(4.50)" xlink:href="#gpPt0"/><use color="red" transform="translate(624.3,345.8) scale(4.50)" xlink:href="#gpPt0"/><use color="red" transform="translate(811.6,271.2) scale(4.50)" xlink:href="#gpPt0"/><use color="red" transform="translate(999.0,188.4) scale(4.50)" xlink:href="#gpPt0"/><use color="red" transform="translate(961.3,588.0) scale(4.50)" xlink:href="#gpPt0"/></g></g><g id="gnuplot_plot_2"><title>async_cpupool</title><g fill="none" stroke="currentColor" stroke-linecap="butt" stroke-linejoin="miter" stroke-width="1" color="#000"><g fill="#000" stroke="none" font-family="Arial" font-size="12" text-anchor="end"><text transform="translate(931.9,609.9)"><tspan font-family="Arial">async_cpupool</tspan></text></g></g><g fill="none" stroke="currentColor" stroke-linecap="butt" stroke-linejoin="miter" stroke-width="1" color="#000"><path stroke="#00F" d="M940.2,606.0 L982.4,606.0 M62.2,524.1 L249.6,460.0 L436.9,386.7 L624.3,315.8 L811.6,243.4 L999.0,164.6"/><use color="#00F" transform="translate(62.2,524.1) scale(4.50)" xlink:href="#gpPt0"/><use color="#00F" transform="translate(249.6,460.0) scale(4.50)" xlink:href="#gpPt0"/><use color="#00F" transform="translate(436.9,386.7) scale(4.50)" xlink:href="#gpPt0"/><use color="#00F" transform="translate(624.3,315.8) scale(4.50)" xlink:href="#gpPt0"/><use color="#00F" transform="translate(811.6,243.4) scale(4.50)" xlink:href="#gpPt0"/><use color="#00F" transform="translate(999.0,164.6) scale(4.50)" xlink:href="#gpPt0"/><use color="#00F" transform="translate(961.3,606.0) scale(4.50)" xlink:href="#gpPt0"/></g></g><g id="gnuplot_plot_3"><title>corona_cpus</title><g fill="none" stroke="currentColor" stroke-linecap="butt" stroke-linejoin="miter" stroke-width="1" color="#000"><g fill="#000" stroke="none" font-family="Arial" font-size="12" text-anchor="end"><text transform="translate(931.9,627.9)"><tspan font-family="Arial">corona_cpus</tspan></text></g></g><g fill="none" stroke="currentColor" stroke-linecap="butt" stroke-linejoin="miter" stroke-width="1" color="#000"><path stroke="#000" d="M940.2,624.0 L982.4,624.0 M62.2,539.0 L249.6,471.1 L436.9,401.2 L624.3,328.3 L811.6,244.7 L999.0,169.1"/><use color="#000" transform="translate(62.2,539.0) scale(4.50)" xlink:href="#gpPt0"/><use color="#000" transform="translate(249.6,471.1) scale(4.50)" xlink:href="#gpPt0"/><use color="#000" transform="translate(436.9,401.2) scale(4.50)" xlink:href="#gpPt0"/><use color="#000" transform="translate(624.3,328.3) scale(4.50)" xlink:href="#gpPt0"/><use color="#000" transform="translate(811.6,244.7) scale(4.50)" xlink:href="#gpPt0"/><use color="#000" transform="translate(999.0,169.1) scale(4.50)" xlink:href="#gpPt0"/><use color="#000" transform="translate(961.3,624.0) scale(4.50)" xlink:href="#gpPt0"/></g></g><g id="gnuplot_plot_4"><title>corona_blocking_wrapper_cpus</title><g fill="none" stroke="currentColor" stroke-linecap="butt" stroke-linejoin="miter" stroke-width="1" color="#000"><g fill="#000" stroke="none" font-family="Arial" font-size="12" text-anchor="end"><text transform="translate(931.9,645.9)"><tspan font-family="Arial">corona_blocking_wrapper_cpus</tspan></text></g></g><g fill="none" stroke="currentColor" stroke-linecap="butt" stroke-linejoin="miter" stroke-width="1" color="#000"><path stroke="#FF80FF" d="M940.2,642.0 L982.4,642.0 M62.2,538.8 L249.6,470.1 L436.9,400.5 L624.3,326.3 L811.6,237.1 L999.0,167.0"/><use color="#FF80FF" transform="translate(62.2,538.8) scale(4.50)" xlink:href="#gpPt0"/><use color="#FF80FF" transform="translate(249.6,470.1) scale(4.50)" xlink:href="#gpPt0"/><use color="#FF80FF" transform="translate(436.9,400.5) scale(4.50)" xlink:href="#gpPt0"/><use color="#FF80FF" transform="translate(624.3,326.3) scale(4.50)" xlink:href="#gpPt0"/><use color="#FF80FF" transform="translate(811.6,237.1) scale(4.50)" xlink:href="#gpPt0"/><use color="#FF80FF" transform="translate(999.0,167.0) scale(4.50)" xlink:href="#gpPt0"/><use color="#FF80FF" transform="translate(961.3,642.0) scale(4.50)" xlink:href="#gpPt0"/></g></g><g id="gnuplot_plot_5"><title>futures_cpus</title><g fill="none" stroke="currentColor" stroke-linecap="butt" stroke-linejoin="miter" stroke-width="1" color="#000"><g fill="#000" stroke="none" font-family="Arial" font-size="12" text-anchor="end"><text transform="translate(931.9,663.9)"><tspan font-family="Arial">futures_cpus</tspan></text></g></g><g fill="none" stroke="currentColor" stroke-linecap="butt" stroke-linejoin="miter" stroke-width="1" color="#000"><path stroke="#0F0" d="M940.2,660.0 L982.4,660.0 M62.2,507.5 L249.6,438.6 L436.9,377.6 L624.3,307.2 L811.6,235.9 L999.0,162.4"/><use color="#0F0" transform="translate(62.2,507.5) scale(4.50)" xlink:href="#gpPt0"/><use color="#0F0" transform="translate(249.6,438.6) scale(4.50)" xlink:href="#gpPt0"/><use color="#0F0" transform="translate(436.9,377.6) scale(4.50)" xlink:href="#gpPt0"/><use color="#0F0" transform="translate(624.3,307.2) scale(4.50)" xlink:href="#gpPt0"/><use color="#0F0" transform="translate(811.6,235.9) scale(4.50)" xlink:href="#gpPt0"/><use color="#0F0" transform="translate(999.0,162.4) scale(4.50)" xlink:href="#gpPt0"/><use color="#0F0" transform="translate(961.3,660.0) scale(4.50)" xlink:href="#gpPt0"/></g></g><g id="gnuplot_plot_6"><title>futures_cpupool</title><g fill="none" stroke="currentColor" stroke-linecap="butt" stroke-linejoin="miter" stroke-width="1" color="#000"><g fill="#000" stroke="none" font-family="Arial" font-size="12" text-anchor="end"><text transform="translate(931.9,681.9)"><tspan font-family="Arial">futures_cpupool</tspan></text></g></g><g fill="none" stroke="currentColor" stroke-linecap="butt" stroke-linejoin="miter" stroke-width="1" color="#000"><path stroke="brown" d="M940.2,678.0 L982.4,678.0 M62.2,523.5 L249.6,458.1 L436.9,388.1 L624.3,315.8 L811.6,239.9 L999.0,164.2"/><use color="brown" transform="translate(62.2,523.5) scale(4.50)" xlink:href="#gpPt0"/><use color="brown" transform="translate(249.6,458.1) scale(4.50)" xlink:href="#gpPt0"/><use color="brown" transform="translate(436.9,388.1) scale(4.50)" xlink:href="#gpPt0"/><use color="brown" transform="translate(624.3,315.8) scale(4.50)" xlink:href="#gpPt0"/><use color="brown" transform="translate(811.6,239.9) scale(4.50)" xlink:href="#gpPt0"/><use color="brown" transform="translate(999.0,164.2) scale(4.50)" xlink:href="#gpPt0"/><use color="brown" transform="translate(961.3,678.0) scale(4.50)" xlink:href="#gpPt0"/></g></g><g id="gnuplot_plot_7"><title>may</title><g fill="none" stroke="currentColor" stroke-linecap="butt" stroke-linejoin="miter" stroke-width="1" color="#000"><g fill="#000" stroke="none" font-family="Arial" font-size="12" text-anchor="end"><text transform="translate(931.9,699.9)"><tspan font-family="Arial">may</tspan></text></g></g><g fill="none" stroke="currentColor" stroke-linecap="butt" stroke-linejoin="miter" stroke-width="1" color="#000"><path stroke="#C080FF" d="M940.2,696.0 L982.4,696.0 M62.2,531.5 L249.6,436.7 L436.9,360.4 L624.3,285.8 L811.6,215.1 L999.0,136.3"/><use color="#C080FF" transform="translate(62.2,531.5) scale(4.50)" xlink:href="#gpPt0"/><use color="#C080FF" transform="translate(249.6,436.7) scale(4.50)" xlink:href="#gpPt0"/><use color="#C080FF" transform="translate(436.9,360.4) scale(4.50)" xlink:href="#gpPt0"/><use color="#C080FF" transform="translate(624.3,285.8) scale(4.50)" xlink:href="#gpPt0"/><use color="#C080FF" transform="translate(811.6,215.1) scale(4.50)" xlink:href="#gpPt0"/><use color="#C080FF" transform="translate(999.0,136.3) scale(4.50)" xlink:href="#gpPt0"/><use color="#C080FF" transform="translate(961.3,696.0) scale(4.50)" xlink:href="#gpPt0"/></g></g><g id="gnuplot_plot_8"><title>threads</title><g fill="none" stroke="currentColor" stroke-linecap="butt" stroke-linejoin="miter" stroke-width="1" color="#000"><g fill="#000" stroke="none" font-family="Arial" font-size="12" text-anchor="end"><text transform="translate(931.9,717.9)"><tspan font-family="Arial">threads</tspan></text></g></g><g fill="none" stroke="currentColor" stroke-linecap="butt" stroke-linejoin="miter" stroke-width="1" color="#000"><path stroke="#A08020" d="M940.2,714.0 L982.4,714.0 M62.2,484.7 L249.6,412.5 L436.9,340.6 L624.3,262.0 L811.6,171.0 L999.0,67.4"/><use color="#A08020" transform="translate(62.2,484.7) scale(4.50)" xlink:href="#gpPt0"/><use color="#A08020" transform="translate(249.6,412.5) scale(4.50)" xlink:href="#gpPt0"/><use color="#A08020" transform="translate(436.9,340.6) scale(4.50)" xlink:href="#gpPt0"/><use color="#A08020" transform="translate(624.3,262.0) scale(4.50)" xlink:href="#gpPt0"/><use color="#A08020" transform="translate(811.6,171.0) scale(4.50)" xlink:href="#gpPt0"/><use color="#A08020" transform="translate(999.0,67.4) scale(4.50)" xlink:href="#gpPt0"/><use color="#A08020" transform="translate(961.3,714.0) scale(4.50)" xlink:href="#gpPt0"/></g></g><g fill="none" stroke="currentColor" stroke-linecap="butt" stroke-linejoin="miter" stroke-width="1" color="#000"><path stroke="#000" d="M62.2,18.1 L62.2,732.0 L999.0,732.0 L999.0,18.1 L62.2,18.1 Z"/></g></g></svg>