<svg xmlns="http://www.w3.org/2000/svg" xmlns:xlink="http://www.w3.org/1999/xlink" width="700" height="450" viewBox="0 0 700 450"><title>Gnuplot</title><desc>Produced by GNUPLOT 5.2 patchlevel 2 (Gentoo revision r0)</desc><g id="gnuplot_canvas"><rect width="700" height="450" x="0" y="0" fill="#fff"/><defs><circle id="gpDot" r=".5" stroke-width=".5"/><path id="gpPt0" stroke="currentColor" stroke-width=".222" d="M-1,0 h2 M0,-1 v2"/><path id="gpPt1" stroke="currentColor" stroke-width=".222" d="M-1,-1 L1,1 M1,-1 L-1,1"/><path id="gpPt2" stroke="currentColor" stroke-width=".222" d="M-1,0 L1,0 M0,-1 L0,1 M-1,-1 L1,1 M-1,1 L1,-1"/><rect id="gpPt3" width="2" height="2" x="-1" y="-1" stroke="currentColor" stroke-width=".222"/><rect id="gpPt4" width="2" height="2" x="-1" y="-1" fill="currentColor" stroke="currentColor" stroke-width=".222"/><circle id="gpPt5" cx="0" cy="0" r="1" stroke="currentColor" stroke-width=".222"/><use id="gpPt6" fill="currentColor" stroke="none" xlink:href="#gpPt5"/><path id="gpPt7" stroke="currentColor" stroke-width=".222" d="M0,-1.33 L-1.33,0.67 L1.33,0.67 z"/><use id="gpPt8" fill="currentColor" stroke="none" xlink:href="#gpPt7"/><use id="gpPt9" stroke="currentColor" transform="rotate(180)" xlink:href="#gpPt7"/><use id="gpPt10" fill="currentColor" stroke="none" xlink:href="#gpPt9"/><use id="gpPt11" stroke="currentColor" transform="rotate(45)" xlink:href="#gpPt3"/><use id="gpPt12" fill="currentColor" stroke="none" xlink:href="#gpPt11"/><path id="gpPt13" stroke="currentColor" stroke-width=".222" d="M0,1.330 L1.265,0.411 L0.782,-1.067 L-0.782,-1.076 L-1.265,0.411 z"/><use id="gpPt14" fill="currentColor" stroke="none" xlink:href="#gpPt13"/><filter id="textbox" width="1" height="1" x="0" y="0" filterUnits="objectBoundingBox"><feFlood flood-color="#FFF" flood-opacity="1" result="bgnd"/><feComposite in="SourceGraphic" in2="bgnd" operator="atop"/></filter><filter id="greybox" width="1" height="1" x="0" y="0" filterUnits="objectBoundingBox"><feFlood flood-color="#d3d3d3" flood-opacity="1" result="grey"/><feComposite in="SourceGraphic" in2="grey" operator="atop"/></filter></defs><g fill="none" stroke="currentColor" stroke-linecap="butt" stroke-linejoin="miter" stroke-width="1" color="#000"><path stroke="#000" d="M88.5,392.4 L97.5,392.4 M675.0,392.4 L666.0,392.4"/><g fill="#000" stroke="none" font-family="Arial" font-size="12" text-anchor="end"><text transform="translate(80.2,396.3)"><tspan font-family="Arial">0.001</tspan></text></g></g><g fill="none" stroke="currentColor" stroke-linecap="butt" stroke-linejoin="miter" stroke-width="1" color="#000"><path stroke="#000" d="M88.5,376.3 L93.0,376.3 M675.0,376.3 L670.5,376.3 M88.5,366.9 L93.0,366.9 M675.0,366.9 L670.5,366.9 M88.5,360.2 L93.0,360.2 M675.0,360.2 L670.5,360.2 M88.5,355.0 L93.0,355.0 M675.0,355.0 L670.5,355.0 M88.5,350.8 L93.0,350.8 M675.0,350.8 L670.5,350.8 M88.5,347.2 L93.0,347.2 M675.0,347.2 L670.5,347.2 M88.5,344.1 L93.0,344.1 M675.0,344.1 L670.5,344.1 M88.5,341.4 L93.0,341.4 M675.0,341.4 L670.5,341.4 M88.5,338.9 L97.5,338.9 M675.0,338.9 L666.0,338.9"/><g fill="#000" stroke="none" font-family="Arial" font-size="12" text-anchor="end"><text transform="translate(80.2,342.8)"><tspan font-family="Arial">0.01</tspan></text></g></g><g fill="none" stroke="currentColor" stroke-linecap="butt" stroke-linejoin="miter" stroke-width="1" color="#000"><path stroke="#000" d="M88.5,322.8 L93.0,322.8 M675.0,322.8 L670.5,322.8 M88.5,313.4 L93.0,313.4 M675.0,313.4 L670.5,313.4 M88.5,306.7 L93.0,306.7 M675.0,306.7 L670.5,306.7 M88.5,301.6 L93.0,301.6 M675.0,301.6 L670.5,301.6 M88.5,297.3 L93.0,297.3 M675.0,297.3 L670.5,297.3 M88.5,293.7 L93.0,293.7 M675.0,293.7 L670.5,293.7 M88.5,290.6 L93.0,290.6 M675.0,290.6 L670.5,290.6 M88.5,287.9 L93.0,287.9 M675.0,287.9 L670.5,287.9 M88.5,285.5 L97.5,285.5 M675.0,285.5 L666.0,285.5"/><g fill="#000" stroke="none" font-family="Arial" font-size="12" text-anchor="end"><text transform="translate(80.2,289.4)"><tspan font-family="Arial">0.1</tspan></text></g></g><g fill="none" stroke="currentColor" stroke-linecap="butt" stroke-linejoin="miter" stroke-width="1" color="#000"><path stroke="#000" d="M88.5,269.4 L93.0,269.4 M675.0,269.4 L670.5,269.4 M88.5,259.9 L93.0,259.9 M675.0,259.9 L670.5,259.9 M88.5,253.3 L93.0,253.3 M675.0,253.3 L670.5,253.3 M88.5,248.1 L93.0,248.1 M675.0,248.1 L670.5,248.1 M88.5,243.8 L93.0,243.8 M675.0,243.8 L670.5,243.8 M88.5,240.3 L93.0,240.3 M675.0,240.3 L670.5,240.3 M88.5,237.2 L93.0,237.2 M675.0,237.2 L670.5,237.2 M88.5,234.4 L93.0,234.4 M675.0,234.4 L670.5,234.4 M88.5,232.0 L97.5,232.0 M675.0,232.0 L666.0,232.0"/><g fill="#000" stroke="none" font-family="Arial" font-size="12" text-anchor="end"><text transform="translate(80.2,235.9)"><tspan font-family="Arial">1</tspan></text></g></g><g fill="none" stroke="currentColor" stroke-linecap="butt" stroke-linejoin="miter" stroke-width="1" color="#000"><path stroke="#000" d="M88.5,215.9 L93.0,215.9 M675.0,215.9 L670.5,215.9 M88.5,206.5 L93.0,206.5 M675.0,206.5 L670.5,206.5 M88.5,199.8 L93.0,199.8 M675.0,199.8 L670.5,199.8 M88.5,194.6 L93.0,194.6 M675.0,194.6 L670.5,194.6 M88.5,190.4 L93.0,190.4 M675.0,190.4 L670.5,190.4 M88.5,186.8 L93.0,186.8 M675.0,186.8 L670.5,186.8 M88.5,183.7 L93.0,183.7 M675.0,183.7 L670.5,183.7 M88.5,181.0 L93.0,181.0 M675.0,181.0 L670.5,181.0 M88.5,178.5 L97.5,178.5 M675.0,178.5 L666.0,178.5"/><g fill="#000" stroke="none" font-family="Arial" font-size="12" text-anchor="end"><text transform="translate(80.2,182.4)"><tspan font-family="Arial">10</tspan></text></g></g><g fill="none" stroke="currentColor" stroke-linecap="butt" stroke-linejoin="miter" stroke-width="1" color="#000"><path stroke="#000" d="M88.5,162.4 L93.0,162.4 M675.0,162.4 L670.5,162.4 M88.5,153.0 L93.0,153.0 M675.0,153.0 L670.5,153.0 M88.5,146.3 L93.0,146.3 M675.0,146.3 L670.5,146.3 M88.5,141.1 L93.0,141.1 M675.0,141.1 L670.5,141.1 M88.5,136.9 L93.0,136.9 M675.0,136.9 L670.5,136.9 M88.5,133.3 L93.0,133.3 M675.0,133.3 L670.5,133.3 M88.5,130.2 L93.0,130.2 M675.0,130.2 L670.5,130.2 M88.5,127.5 L93.0,127.5 M675.0,127.5 L670.5,127.5 M88.5,125.0 L97.5,125.0 M675.0,125.0 L666.0,125.0"/><g fill="#000" stroke="none" font-family="Arial" font-size="12" text-anchor="end"><text transform="translate(80.2,128.9)"><tspan font-family="Arial">100</tspan></text></g></g><g fill="none" stroke="currentColor" stroke-linecap="butt" stroke-linejoin="miter" stroke-width="1" color="#000"><path stroke="#000" d="M88.5,108.9 L93.0,108.9 M675.0,108.9 L670.5,108.9 M88.5,99.5 L93.0,99.5 M675.0,99.5 L670.5,99.5 M88.5,92.8 L93.0,92.8 M675.0,92.8 L670.5,92.8 M88.5,87.7 L93.0,87.7 M675.0,87.7 L670.5,87.7 M88.5,83.4 L93.0,83.4 M675.0,83.4 L670.5,83.4 M88.5,79.9 L93.0,79.9 M675.0,79.9 L670.5,79.9 M88.5,76.8 L93.0,76.8 M675.0,76.8 L670.5,76.8 M88.5,74.0 L93.0,74.0 M675.0,74.0 L670.5,74.0 M88.5,71.6 L97.5,71.6 M675.0,71.6 L666.0,71.6"/><g fill="#000" stroke="none" font-family="Arial" font-size="12" text-anchor="end"><text transform="translate(80.2,75.5)"><tspan font-family="Arial">1000</tspan></text></g></g><g fill="none" stroke="currentColor" stroke-linecap="butt" stroke-linejoin="miter" stroke-width="1" color="#000"><path stroke="#000" d="M88.5,55.5 L93.0,55.5 M675.0,55.5 L670.5,55.5 M88.5,46.1 L93.0,46.1 M675.0,46.1 L670.5,46.1 M88.5,39.4 L93.0,39.4 M675.0,39.4 L670.5,39.4 M88.5,34.2 L93.0,34.2 M675.0,34.2 L670.5,34.2 M88.5,30.0 L93.0,30.0 M675.0,30.0 L670.5,30.0 M88.5,26.4 L93.0,26.4 M675.0,26.4 L670.5,26.4 M88.5,23.3 L93.0,23.3 M675.0,23.3 L670.5,23.3 M88.5,20.5 L93.0,20.5 M675.0,20.5 L670.5,20.5 M88.5,18.1 L97.5,18.1 M675.0,18.1 L666.0,18.1"/><g fill="#000" stroke="none" font-family="Arial" font-size="12" text-anchor="end"><text transform="translate(80.2,22.0)"><tspan font-family="Arial">10000</tspan></text></g></g><g fill="none" stroke="currentColor" stroke-linecap="butt" stroke-linejoin="miter" stroke-width="1" color="#000"><path stroke="#000" d="M110.9,392.4 L110.9,387.9 M110.9,18.1 L110.9,22.6 M151.4,392.4 L151.4,387.9 M151.4,18.1 L151.4,22.6 M182.9,392.4 L182.9,387.9 M182.9,18.1 L182.9,22.6 M208.6,392.4 L208.6,387.9 M208.6,18.1 L208.6,22.6 M230.4,392.4 L230.4,387.9 M230.4,18.1 L230.4,22.6 M249.2,392.4 L249.2,387.9 M249.2,18.1 L249.2,22.6 M265.8,392.4 L265.8,387.9 M265.8,18.1 L265.8,22.6 M280.7,392.4 L280.7,383.4 M280.7,18.1 L280.7,27.1"/><g fill="#000" stroke="none" font-family="Arial" font-size="12" text-anchor="middle"><text transform="translate(280.7,414.3)"><tspan font-family="Arial">1000</tspan></text></g></g><g fill="none" stroke="currentColor" stroke-linecap="butt" stroke-linejoin="miter" stroke-width="1" color="#000"><path stroke="#000" d="M378.4,392.4 L378.4,387.9 M378.4,18.1 L378.4,22.6 M435.6,392.4 L435.6,387.9 M435.6,18.1 L435.6,22.6 M476.2,392.4 L476.2,387.9 M476.2,18.1 L476.2,22.6 M507.6,392.4 L507.6,387.9 M507.6,18.1 L507.6,22.6 M533.3,392.4 L533.3,387.9 M533.3,18.1 L533.3,22.6 M555.1,392.4 L555.1,387.9 M555.1,18.1 L555.1,22.6 M573.9,392.4 L573.9,387.9 M573.9,18.1 L573.9,22.6 M590.5,392.4 L590.5,387.9 M590.5,18.1 L590.5,22.6 M605.4,392.4 L605.4,383.4 M605.4,18.1 L605.4,27.1"/><g fill="#000" stroke="none" font-family="Arial" font-size="12" text-anchor="middle"><text transform="translate(605.4,414.3)"><tspan font-family="Arial">10000</tspan></text></g></g><g fill="none" stroke="currentColor" stroke-linecap="butt" stroke-linejoin="miter" stroke-width="1" color="#000"><path stroke="#000" d="M88.5,18.1 L88.5,392.4 L675.0,392.4 L675.0,18.1 L88.5,18.1 Z"/></g><g fill="none" stroke="currentColor" stroke-linecap="butt" stroke-linejoin="miter" stroke-width="1" color="#000"><g fill="#000" stroke="none" font-family="Arial" font-size="12" text-anchor="middle"><text transform="translate(16.3,205.3) rotate(270)"><tspan font-family="Arial">Time (seconds)</tspan></text></g></g><g fill="none" stroke="currentColor" stroke-linecap="butt" stroke-linejoin="miter" stroke-width="1" color="#000"><g fill="#000" stroke="none" font-family="Arial" font-size="12" text-anchor="middle"><text transform="translate(381.7,441.3)"><tspan font-family="Arial">Side of the matrix</tspan></text></g></g><g id="gnuplot_plot_1"><title>Armadillo</title><g fill="none" stroke="currentColor" stroke-linecap="butt" stroke-linejoin="miter" stroke-width="1" color="#000"><g fill="#000" stroke="none" font-family="Arial" font-size="12" text-anchor="end"><text transform="translate(607.9,270.3)"><tspan font-family="Arial">Armadillo</tspan></text></g></g><g fill="none" stroke="currentColor" stroke-linecap="butt" stroke-linejoin="miter" stroke-width="1" color="#000"><path stroke="red" d="M616.2,266.4 L658.4,266.4 M88.5,285.5 L186.3,236.0 L284.0,239.3 L381.8,191.5 L479.5,141.9 L577.3,94.0 L675.0,45.2"/><use color="red" transform="translate(88.5,285.5) scale(4.50)" xlink:href="#gpPt0"/><use color="red" transform="translate(186.3,236.0) scale(4.50)" xlink:href="#gpPt0"/><use color="red" transform="translate(284.0,239.3) scale(4.50)" xlink:href="#gpPt0"/><use color="red" transform="translate(381.8,191.5) scale(4.50)" xlink:href="#gpPt0"/><use color="red" transform="translate(479.5,141.9) scale(4.50)" xlink:href="#gpPt0"/><use color="red" transform="translate(577.3,94.0) scale(4.50)" xlink:href="#gpPt0"/><use color="red" transform="translate(675.0,45.2) scale(4.50)" xlink:href="#gpPt0"/><use color="red" transform="translate(637.3,266.4) scale(4.50)" xlink:href="#gpPt0"/></g></g><g id="gnuplot_plot_2"><title>Combined</title><g fill="none" stroke="currentColor" stroke-linecap="butt" stroke-linejoin="miter" stroke-width="1" color="#000"><g fill="#000" stroke="none" font-family="Arial" font-size="12" text-anchor="end"><text transform="translate(607.9,288.3)"><tspan font-family="Arial">Combined</tspan></text></g></g><g fill="none" stroke="currentColor" stroke-linecap="butt" stroke-linejoin="miter" stroke-width="1" color="#000"><path stroke="#00F" d="M616.2,284.4 L658.4,284.4 M88.5,347.2 L186.3,318.6 L284.0,286.6 L381.8,238.6 L479.5,191.5 L577.3,143.5 L675.0,95.8"/><use color="#00F" transform="translate(88.5,347.2) scale(4.50)" xlink:href="#gpPt0"/><use color="#00F" transform="translate(186.3,318.6) scale(4.50)" xlink:href="#gpPt0"/><use color="#00F" transform="translate(284.0,286.6) scale(4.50)" xlink:href="#gpPt0"/><use color="#00F" transform="translate(381.8,238.6) scale(4.50)" xlink:href="#gpPt0"/><use color="#00F" transform="translate(479.5,191.5) scale(4.50)" xlink:href="#gpPt0"/><use color="#00F" transform="translate(577.3,143.5) scale(4.50)" xlink:href="#gpPt0"/><use color="#00F" transform="translate(675.0,95.8) scale(4.50)" xlink:href="#gpPt0"/><use color="#00F" transform="translate(637.3,284.4) scale(4.50)" xlink:href="#gpPt0"/></g></g><g id="gnuplot_plot_3"><title>Parallel</title><g fill="none" stroke="currentColor" stroke-linecap="butt" stroke-linejoin="miter" stroke-width="1" color="#000"><g fill="#000" stroke="none" font-family="Arial" font-size="12" text-anchor="end"><text transform="translate(607.9,306.3)"><tspan font-family="Arial">Parallel</tspan></text></g></g><g fill="none" stroke="currentColor" stroke-linecap="butt" stroke-linejoin="miter" stroke-width="1" color="#000"><path stroke="#000" d="M616.2,302.4 L658.4,302.4 M88.5,326.6 L186.3,291.8 L284.0,242.5 L381.8,195.0 L479.5,146.9"/><use color="#000" transform="translate(88.5,326.6) scale(4.50)" xlink:href="#gpPt0"/><use color="#000" transform="translate(186.3,291.8) scale(4.50)" xlink:href="#gpPt0"/><use color="#000" transform="translate(284.0,242.5) scale(4.50)" xlink:href="#gpPt0"/><use color="#000" transform="translate(381.8,195.0) scale(4.50)" xlink:href="#gpPt0"/><use color="#000" transform="translate(479.5,146.9) scale(4.50)" xlink:href="#gpPt0"/><use color="#000" transform="translate(637.3,302.4) scale(4.50)" xlink:href="#gpPt0"/></g></g><g id="gnuplot_plot_4"><title>Recursive</title><g fill="none" stroke="currentColor" stroke-linecap="butt" stroke-linejoin="miter" stroke-width="1" color="#000"><g fill="#000" stroke="none" font-family="Arial" font-size="12" text-anchor="end"><text transform="translate(607.9,324.3)"><tspan font-family="Arial">Recursive</tspan></text></g></g><g fill="none" stroke="currentColor" stroke-linecap="butt" stroke-linejoin="miter" stroke-width="1" color="#000"><path stroke="#FF80FF" d="M616.2,320.4 L658.4,320.4 M88.5,295.1 L186.3,247.2 L284.0,198.5 L381.8,150.4 L479.5,100.9"/><use color="#FF80FF" transform="translate(88.5,295.1) scale(4.50)" xlink:href="#gpPt0"/><use color="#FF80FF" transform="translate(186.3,247.2) scale(4.50)" xlink:href="#gpPt0"/><use color="#FF80FF" transform="translate(284.0,198.5) scale(4.50)" xlink:href="#gpPt0"/><use color="#FF80FF" transform="translate(381.8,150.4) scale(4.50)" xlink:href="#gpPt0"/><use color="#FF80FF" transform="translate(479.5,100.9) scale(4.50)" xlink:href="#gpPt0"/><use color="#FF80FF" transform="translate(637.3,320.4) scale(4.50)" xlink:href="#gpPt0"/></g></g><g id="gnuplot_plot_5"><title>SIMD</title><g fill="none" stroke="currentColor" stroke-linecap="butt" stroke-linejoin="miter" stroke-width="1" color="#000"><g fill="#000" stroke="none" font-family="Arial" font-size="12" text-anchor="end"><text transform="translate(607.9,342.3)"><tspan font-family="Arial">SIMD</tspan></text></g></g><g fill="none" stroke="currentColor" stroke-linecap="butt" stroke-linejoin="miter" stroke-width="1" color="#000"><path stroke="#0F0" d="M616.2,338.4 L658.4,338.4 M88.5,347.2 L186.3,299.8 L284.0,243.6 L381.8,191.2 L479.5,144.0 L577.3,96.0 L675.0,47.4"/><use color="#0F0" transform="translate(88.5,347.2) scale(4.50)" xlink:href="#gpPt0"/><use color="#0F0" transform="translate(186.3,299.8) scale(4.50)" xlink:href="#gpPt0"/><use color="#0F0" transform="translate(284.0,243.6) scale(4.50)" xlink:href="#gpPt0"/><use color="#0F0" transform="translate(381.8,191.2) scale(4.50)" xlink:href="#gpPt0"/><use color="#0F0" transform="translate(479.5,144.0) scale(4.50)" xlink:href="#gpPt0"/><use color="#0F0" transform="translate(577.3,96.0) scale(4.50)" xlink:href="#gpPt0"/><use color="#0F0" transform="translate(675.0,47.4) scale(4.50)" xlink:href="#gpPt0"/><use color="#0F0" transform="translate(637.3,338.4) scale(4.50)" xlink:href="#gpPt0"/></g></g><g id="gnuplot_plot_6"><title>Simple</title><g fill="none" stroke="currentColor" stroke-linecap="butt" stroke-linejoin="miter" stroke-width="1" color="#000"><g fill="#000" stroke="none" font-family="Arial" font-size="12" text-anchor="end"><text transform="translate(607.9,360.3)"><tspan font-family="Arial">Simple</tspan></text></g></g><g fill="none" stroke="currentColor" stroke-linecap="butt" stroke-linejoin="miter" stroke-width="1" color="#000"><path stroke="brown" d="M616.2,356.4 L658.4,356.4 M88.5,291.5 L186.3,246.0 L284.0,169.5 L381.8,97.9 L479.5,46.6"/><use color="brown" transform="translate(88.5,291.5) scale(4.50)" xlink:href="#gpPt0"/><use color="brown" transform="translate(186.3,246.0) scale(4.50)" xlink:href="#gpPt0"/><use color="brown" transform="translate(284.0,169.5) scale(4.50)" xlink:href="#gpPt0"/><use color="brown" transform="translate(381.8,97.9) scale(4.50)" xlink:href="#gpPt0"/><use color="brown" transform="translate(479.5,46.6) scale(4.50)" xlink:href="#gpPt0"/><use color="brown" transform="translate(637.3,356.4) scale(4.50)" xlink:href="#gpPt0"/></g></g><g id="gnuplot_plot_7"><title>Strassen</title><g fill="none" stroke="currentColor" stroke-linecap="butt" stroke-linejoin="miter" stroke-width="1" color="#000"><g fill="#000" stroke="none" font-family="Arial" font-size="12" text-anchor="end"><text transform="translate(607.9,378.3)"><tspan font-family="Arial">Strassen</tspan></text></g></g><g fill="none" stroke="currentColor" stroke-linecap="butt" stroke-linejoin="miter" stroke-width="1" color="#000"><path stroke="#C080FF" d="M616.2,374.4 L658.4,374.4 M88.5,344.1 L186.3,324.0 L284.0,286.2 L381.8,243.9 L479.5,199.6 L577.3,155.7 L675.0,111.2"/><use color="#C080FF" transform="translate(88.5,344.1) scale(4.50)" xlink:href="#gpPt0"/><use color="#C080FF" transform="translate(186.3,324.0) scale(4.50)" xlink:href="#gpPt0"/><use color="#C080FF" transform="translate(284.0,286.2) scale(4.50)" xlink:href="#gpPt0"/><use color="#C080FF" transform="translate(381.8,243.9) scale(4.50)" xlink:href="#gpPt0"/><use color="#C080FF" transform="translate(479.5,199.6) scale(4.50)" xlink:href="#gpPt0"/><use color="#C080FF" transform="translate(577.3,155.7) scale(4.50)" xlink:href="#gpPt0"/><use color="#C080FF" transform="translate(675.0,111.2) scale(4.50)" xlink:href="#gpPt0"/><use color="#C080FF" transform="translate(637.3,374.4) scale(4.50)" xlink:href="#gpPt0"/></g></g><g fill="none" stroke="currentColor" stroke-linecap="butt" stroke-linejoin="miter" stroke-width="1" color="#000"><path stroke="#000" d="M88.5,18.1 L88.5,392.4 L675.0,392.4 L675.0,18.1 L88.5,18.1 Z"/></g></g></svg>